<svg xmlns="http://www.w3.org/2000/svg" viewBox="0 0 32 32" fill="none" aria-hidden="true">
	<!-- Verre de vin — favicon Bouffons Bios (nature + bordeaux + reflet) -->
	<ellipse cx="16" cy="26.85" rx="5.35" ry="1.7" fill="#35624a" />
	<path
		fill="#35624a"
		d="M14.55 16.35a.45.45 0 0 1 .45-.4h1.8a.45.45 0 0 1 .45.4v9.05h-2.7v-9.05z"
	/>
	<path
		fill="#8f2d4a"
		d="M10.65 5.65h10.7L18.2 14.4c-.78 2.05-1.92 3.05-2.78 3.05h-.84c-.86 0-2-1-2.78-3.05l-3.15-8.75z"
	/>
	<path
		fill="none"
		stroke="#35624a"
		stroke-width="1.2"
		stroke-linejoin="round"
		stroke-linecap="round"
		d="M9.55 5h12.9L19 14.85c-1 2.65-2.55 4.1-3.95 4.1h-.1c-1.4 0-2.95-1.45-3.95-4.1L9.55 5z"
	/>
	<path fill="#fff" fill-opacity="0.26" d="M12.35 7.1h2.15v4.35l-1.05 3.05-.85-.25.75-2.2V7.1z" />
</svg>
