<svg xmlns="http://www.w3.org/2000/svg" viewBox="0 0 320 72" fill="none" aria-hidden="true">
	<defs>
		<linearGradient id="bbg" x1="0%" y1="0%" x2="100%" y2="100%">
			<stop offset="0%" style="stop-color:#8f2d4a" />
			<stop offset="100%" style="stop-color:#35624a" />
		</linearGradient>
		<style>
			.wordmark {
				fill: #1c221c;
			}
			.sub {
				fill: #35624a;
			}
		</style>
	</defs>
	<path
		fill="url(#bbg)"
		d="M18 52c4-8 10-14 18-18-6-4-10-11-10-19 0-13 10-23 23-23s23 10 23 23c0 8-4 15-10 19 8 4 14 10 18 18l-4 2c-4-8-10-14-18-17-4 10-14 17-25 17s-21-7-25-17c-8 3-14 9-18 17l-4-2Zm25-37c0 8 6 14 14 14s14-6 14-14-6-14-14-14-14 6-14 14Zm14 33c7 0 13-4 16-10-5-2-10-3-16-3s-11 1-16 3c3 6 9 10 16 10Z"
		opacity="0.95"
	/>
	<text
		class="wordmark"
		x="78"
		y="46"
		font-family="Georgia, 'Times New Roman', serif"
		font-size="28"
		font-weight="700"
		letter-spacing="-0.02em"
	>
		Bouffons Bios
	</text>
	<text class="sub" x="78" y="62" font-family="system-ui, sans-serif" font-size="9.5" font-weight="600" letter-spacing="0.22em">
		ADMINISTRATION
	</text>
</svg>
